<?xml version="1.0" encoding="UTF-8" standalone="no"?>
<svg width="1800px" height="2000px" viewBox="0 0 1800 2000" version="1.1" xmlns="http://www.w3.org/2000/svg" xmlns:xlink="http://www.w3.org/1999/xlink" xmlns:sketch="http://www.bohemiancoding.com/sketch/ns">
    <!-- Generator: Sketch 3.3 (11970) - http://www.bohemiancoding.com/sketch -->
    <title>HungerStruck White Color</title>
    <desc>Created with Sketch.</desc>
    <defs></defs>
    <g id="HungerStruck" stroke="none" stroke-width="1" fill="none" fill-rule="evenodd" sketch:type="MSPage">
        <g id="HungerStruck-White-Color" sketch:type="MSArtboardGroup">
            <g sketch:type="MSLayerGroup">
                <path d="M1800,1500 L1800,500 L1349.9786,250 L1349.9786,1000 L1574.9893,873.411011 L1574.9893,1625 L1800,1500 Z" id="right" fill="#FFFFFF" sketch:type="MSShapeGroup"></path>
                <path d="M225.016678,1625 L0,1500 L0,500 L450.033356,250 L450.033356,1000 L225.016678,873.411011 L225.016678,1625 Z" id="left" fill="#FFFFFF" sketch:type="MSShapeGroup"></path>
                <path d="M450,1500 L450,1250 L675,1375 L674.999999,250 L900.000014,0 L1124.99998,250 L1124.99998,1375 L1350.03221,1250 L1350.03221,1500 L1068.74998,1656.25 L1068.74998,1875 L900.000014,2000 L731.250014,1875 L731.250014,1656.25 L450,1500 Z" id="sword" fill="#FF0000" sketch:type="MSShapeGroup"></path>
            </g>
        </g>
    </g>
</svg>